REM DIRINDEX 1\2,1\3,1\4
REM DIRNAME cjc031,folder01,folder02,folder03
TITLE ""
FILE "CD1-25.mp3" MP3
  TRACK 01 AUDIO
    TITLE "2:cjc031_1628"
    INDEX 01 00:00:00
  TRACK 02 AUDIO
    TITLE "3:cjc031_1629"
    INDEX 01 00:01:07
  TRACK 03 AUDIO
    TITLE "2:cjc031_1630"
    INDEX 01 00:02:45
  TRACK 04 AUDIO
    TITLE "3:cjc031_1631"
    INDEX 01 00:03:66
  TRACK 05 AUDIO
    TITLE "2:cjc031_1632"
    INDEX 01 00:05:28
  TRACK 06 AUDIO
    TITLE "3:cjc031_1633"
    INDEX 01 00:06:41
  TRACK 07 AUDIO
    TITLE "2:cjc031_1634"
    INDEX 01 00:07:68
  TRACK 08 AUDIO
    TITLE "3:cjc031_1635"
    INDEX 01 00:09:20
  TRACK 09 AUDIO
    TITLE "2:cjc031_1636"
    INDEX 01 00:10:49
  TRACK 10 AUDIO
    TITLE "3:cjc031_1637"
    INDEX 01 00:12:14
  TRACK 11 AUDIO
    TITLE "2:cjc031_1638"
    INDEX 01 00:13:53
  TRACK 12 AUDIO
    TITLE "3:cjc031_1639"
    INDEX 01 00:14:74
  TRACK 13 AUDIO
    TITLE "2:cjc031_1640"
    INDEX 01 00:16:22
  TRACK 14 AUDIO
    TITLE "3:cjc031_1641"
    INDEX 01 00:17:39
  TRACK 15 AUDIO
    TITLE "2:cjc031_1642"
    INDEX 01 00:19:01
  TRACK 16 AUDIO
    TITLE "3:cjc031_1643"
    INDEX 01 00:20:16
  TRACK 17 AUDIO
    TITLE "2:cjc031_1644"
    INDEX 01 00:21:66
  TRACK 18 AUDIO
    TITLE "3:cjc031_1645"
    INDEX 01 00:23:14
  TRACK 19 AUDIO
    TITLE "2:cjc031_1646"
    INDEX 01 00:24:53
  TRACK 20 AUDIO
    TITLE "3:cjc031_1647"
    INDEX 01 00:25:74
  TRACK 21 AUDIO
    TITLE "2:cjc031_1648"
    INDEX 01 00:27:41
  TRACK 22 AUDIO
    TITLE "3:cjc031_1649"
    INDEX 01 00:28:60
  TRACK 23 AUDIO
    TITLE "2:cjc031_1650"
    INDEX 01 00:30:38
  TRACK 24 AUDIO
    TITLE "3:cjc031_1651"
    INDEX 01 00:31:55
  TRACK 25 AUDIO
    TITLE "2:cjc031_1652"
    INDEX 01 00:33:21
  TRACK 26 AUDIO
    TITLE "3:cjc031_1653"
    INDEX 01 00:34:49
  TRACK 27 AUDIO
    TITLE "2:cjc031_1654"
    INDEX 01 00:36:05
  TRACK 28 AUDIO
    TITLE "3:cjc031_1655"
    INDEX 01 00:37:42
  TRACK 29 AUDIO
    TITLE "2:cjc031_1656"
    INDEX 01 00:39:17
  TRACK 30 AUDIO
    TITLE "3:cjc031_1657"
    INDEX 01 00:40:42
  TRACK 31 AUDIO
    TITLE "2:cjc031_1658"
    INDEX 01 00:42:25
  TRACK 32 AUDIO
    TITLE "3:cjc031_1659"
    INDEX 01 00:43:50
  TRACK 33 AUDIO
    TITLE "2:cjc031_1660"
    INDEX 01 00:45:06
  TRACK 34 AUDIO
    TITLE "3:cjc031_1661"
    INDEX 01 00:46:17
  TRACK 35 AUDIO
    TITLE "2:cjc031_1662"
    INDEX 01 00:47:58
  TRACK 36 AUDIO
    TITLE "3:cjc031_1663"
    INDEX 01 00:49:02
  TRACK 37 AUDIO
    TITLE "2:cjc031_1664"
    INDEX 01 00:50:37
  TRACK 38 AUDIO
    TITLE "3:cjc031_1665"
    INDEX 01 00:51:65
  TRACK 39 AUDIO
    TITLE "2:cjc031_1666"
    INDEX 01 00:53:25
  TRACK 40 AUDIO
    TITLE "3:cjc031_1667"
    INDEX 01 00:54:34
  TRACK 41 AUDIO
    TITLE "2:cjc031_1668"
    INDEX 01 00:55:63
  TRACK 42 AUDIO
    TITLE "3:cjc031_1669"
    INDEX 01 00:57:23
  TRACK 43 AUDIO
    TITLE "2:cjc031_1670"
    INDEX 01 00:58:66
  TRACK 44 AUDIO
    TITLE "3:cjc031_1671"
    INDEX 01 01:00:10
  TRACK 45 AUDIO
    TITLE "2:cjc031_1672"
    INDEX 01 01:01:52
  TRACK 46 AUDIO
    TITLE "3:cjc031_1673"
    INDEX 01 01:02:59
  TRACK 47 AUDIO
    TITLE "2:cjc031_1674"
    INDEX 01 01:04:25
  TRACK 48 AUDIO
    TITLE "3:cjc031_1675"
    INDEX 01 01:05:38
  TRACK 49 AUDIO
    TITLE "2:cjc031_1676"
    INDEX 01 01:06:69
  TRACK 50 AUDIO
    TITLE "3:cjc031_1677"
    INDEX 01 01:08:31
  TRACK 51 AUDIO
    TITLE "2:cjc031_1678"
    INDEX 01 01:09:56
  TRACK 52 AUDIO
    TITLE "3:cjc031_1679"
    INDEX 01 01:10:71
  TRACK 53 AUDIO
    TITLE "2:cjc031_1680"
    INDEX 01 01:12:42
  TRACK 54 AUDIO
    TITLE "3:cjc031_1681"
    INDEX 01 01:14:00
  TRACK 55 AUDIO
    TITLE "2:cjc031_1682"
    INDEX 01 01:15:60
  TRACK 56 AUDIO
    TITLE "3:cjc031_1683"
    INDEX 01 01:17:06
  TRACK 57 AUDIO
    TITLE "2:cjc031_1684"
    INDEX 01 01:18:43
  TRACK 58 AUDIO
    TITLE "3:cjc031_1685"
    INDEX 01 01:19:74
  TRACK 59 AUDIO
    TITLE "2:cjc031_1686"
    INDEX 01 01:21:33
  TRACK 60 AUDIO
    TITLE "3:cjc031_1687"
    INDEX 01 01:22:42
  TRACK 61 AUDIO
    TITLE "2:cjc031_1688"
    INDEX 01 01:24:12
  TRACK 62 AUDIO
    TITLE "3:cjc031_1689"
    INDEX 01 01:25:39
  TRACK 63 AUDIO
    TITLE "2:cjc031_1690"
    INDEX 01 01:27:06
  TRACK 64 AUDIO
    TITLE "3:cjc031_1691"
    INDEX 01 01:28:25
  TRACK 65 AUDIO
    TITLE "2:cjc031_1692"
    INDEX 01 01:29:48
  TRACK 66 AUDIO
    TITLE "3:cjc031_1693"
    INDEX 01 01:30:64
  TRACK 67 AUDIO
    TITLE "2:cjc031_1694"
    INDEX 01 01:32:21
  TRACK 68 AUDIO
    TITLE "3:cjc031_1695"
    INDEX 01 01:33:48
  TRACK 69 AUDIO
    TITLE "2:cjc031_1696"
    INDEX 01 01:35:08
  TRACK 70 AUDIO
    TITLE "3:cjc031_1697"
    INDEX 01 01:36:23
  TRACK 71 AUDIO
    TITLE "2:cjc031_1698"
    INDEX 01 01:37:58
  TRACK 72 AUDIO
    TITLE "3:cjc031_1699"
    INDEX 01 01:39:10
  TRACK 73 AUDIO
    TITLE "2:cjc031_1700"
    INDEX 01 01:40:46
  TRACK 74 AUDIO
    TITLE "3:cjc031_1701"
    INDEX 01 01:41:65
  TRACK 75 AUDIO
    TITLE "2:cjc031_1702"
    INDEX 01 01:43:21
  TRACK 76 AUDIO
    TITLE "3:cjc031_1703"
    INDEX 01 01:44:48
  TRACK 77 AUDIO
    TITLE "2:cjc031_1704"
    INDEX 01 01:46:23
  TRACK 78 AUDIO
    TITLE "3:cjc031_1705"
    INDEX 01 01:47:35
  TRACK 79 AUDIO
    TITLE "2:cjc031_1706"
    INDEX 01 01:49:00
  TRACK 80 AUDIO
    TITLE "3:cjc031_1707"
    INDEX 01 01:50:23
  TRACK 81 AUDIO
    TITLE "0:"
    INDEX 01 01:51:44
